{"title":"Zeher 2005 Hindi 720p WEB-DL x264 AAC { TaRa }","magnet":"magnet:?xt=urn:btih:4d4c3257c8a0edb0e37ea3096eb50d251d45b828&dn=Zeher+2005+Hindi+720p+WEB-DL+x264+AAC+%7B+TaRa+%7D&tr=udp%3A%2F%2Ftracker.leechers-paradise.org%3A6969&tr=udp%3A%2F%2Fzer0day.ch%3A1337&tr=udp%3A%2F%2Fopen.demonii.com%3A1337&tr=udp%3A%2F%2Ftracker.coppersurfer.tk%3A6969&tr=udp%3A%2F%2Fexodus.desync.com%3A6969","uploader":"SkTaRa","categoryP":"video","categoryS":"hd___movies","size":"927133896","seeders":"0","leechers":"3","description":"===================================================================\r\nGeneral\r\nComplete name               : Zeher 2005 Hindi 720p WEB-DL x264 AAC { TaRa }.mkv\r\nFormat                      : Matroska\r\nFormat version              : Version 4 / Version 2\r\nFile size                   : 884 MiB\r\nDuration                    : 2 h 13 min\r\nOverall bit rate            : 929 kb/s\r\n===================================================================\r\nVideo\r\nID                          : 1\r\nFormat                      : AVC\r\nFormat/Info                 : Advanced Video Codec\r\nFormat profile              : <a href=\"/cdn-cgi/l/email-protection\" class=\"__cf_email__\" data-cfemail=\"efa28e8681afa3dcc1de\">[email&#xA0;protected]</a>\r\nFormat settings             : CABAC / 3 Ref Frames\r\nFormat settings, CABAC      : Yes\r\nFormat settings, RefFrames  : 3 frames\r\nCodec ID                    : V_MPEG4/ISO/AVC\r\nDuration                    : 2 h 13 min\r\nBit rate                    : 801 kb/s\r\nWidth                       : 1 280 pixels\r\nHeight                      : 544 pixels\r\nDisplay aspect ratio        : 2.35:1\r\nFrame rate mode             : Constant\r\nFrame rate                  : 23.976 (24000/1001) FPS\r\nColor space                 : YUV\r\nChroma subsampling          : 4:2:0\r\nBit depth                   : 8 bits\r\nScan type                   : Progressive\r\nBits/(Pixel*Frame)          : 0.048\r\nStream size                 : 762 MiB (86%)\r\nTitle                       : .....::::: TaRa :::::.....\r\nLanguage                    : Hindi\r\nDefault                     : Yes\r\nForced                      : No\r\n===================================================================\r\nAudio\r\nID                          : 2\r\nFormat                      : AAC\r\nFormat/Info                 : Advanced Audio Codec\r\nFormat profile              : LC\r\nCodec ID                    : A_AAC-2\r\nDuration                    : 2 h 13 min\r\nBit rate                    : 126 kb/s\r\nChannel(s)                  : 2 channels\r\nChannel positions           : Front: L R\r\nSampling rate               : 44.1 kHz\r\nFrame rate                  : 43.066 FPS (1024 SPF)\r\nCompression mode            : Lossy\r\nStream size                 : 119 MiB (14%)\r\nTitle                       : .....::::: TaRa :::::.....\r\nLanguage                    : Hindi\r\nDefault                     : Yes\r\nForced                      : No\r\n=================================================================== <a href=\"\nhttp://ssec.life/i/image/EXQP\" rel=\"nofollow\" target=\"_NEW\">\nhttp://ssec.life/i/image/EXQP</a> <a href=\"\nhttp://ssec.life/i/image/ElGl\" rel=\"nofollow\" target=\"_NEW\">\nhttp://ssec.life/i/image/ElGl</a> <a href=\"\nhttp://ssec.life/i/image/EoJa\" rel=\"nofollow\" target=\"_NEW\">\nhttp://ssec.life/i/image/EoJa</a> <a href=\"\nhttp://ssec.life/i/image/EL1V\" rel=\"nofollow\" target=\"_NEW\">\nhttp://ssec.life/i/image/EL1V</a> <a href=\"\nhttp://ssec.life/i/image/EZV2\" rel=\"nofollow\" target=\"_NEW\">\nhttp://ssec.life/i/image/EZV2</a> <a href=\"\nhttp://ssec.life/i/image/Ew2N\" rel=\"nofollow\" target=\"_NEW\">\nhttp://ssec.life/i/image/Ew2N</a> <a href=\"\nhttp://ssec.life/i/image/EEud\" rel=\"nofollow\" target=\"_NEW\">\nhttp://ssec.life/i/image/EEud</a> <a href=\"\nhttp://ssec.life/i/image/ERn0\" rel=\"nofollow\" target=\"_NEW\">\nhttp://ssec.life/i/image/ERn0</a> <a href=\"\nhttp://ssec.life/i/image/EY5Y\" rel=\"nofollow\" target=\"_NEW\">\nhttp://ssec.life/i/image/EY5Y</a> <a href=\"\nhttp://ssec.life/i/image/Ehwv\" rel=\"nofollow\" target=\"_NEW\">\nhttp://ssec.life/i/image/Ehwv</a> <a href=\"\nhttp://ssec.life/i/image/Y2JZ\" rel=\"nofollow\" target=\"_NEW\">\nhttp://ssec.life/i/image/Y2JZ</a> <a href=\"\nhttp://ssec.life/i/image/Y7De\" rel=\"nofollow\" target=\"_NEW\">\nhttp://ssec.life/i/image/Y7De</a> <a href=\"\nhttp://ssec.life/i/image/YMKs\" rel=\"nofollow\" target=\"_NEW\">\nhttp://ssec.life/i/image/YMKs</a> <a href=\"\nhttp://ssec.life/i/image/YcQD\" rel=\"nofollow\" target=\"_NEW\">\nhttp://ssec.life/i/image/YcQD</a> <a href=\"\nhttp://ssec.life/i/image/YgVi\" rel=\"nofollow\" target=\"_NEW\">\nhttp://ssec.life/i/image/YgVi</a> <a href=\"\nhttp://ssec.life/i/image/YTuS\" rel=\"nofollow\" target=\"_NEW\">\nhttp://ssec.life/i/image/YTuS</a> <a href=\"\nhttp://ssec.life/i/image/YK71\" rel=\"nofollow\" target=\"_NEW\">\nhttp://ssec.life/i/image/YK71</a> <a href=\"\nhttp://ssec.life/i/image/YkBr\" rel=\"nofollow\" target=\"_NEW\">\nhttp://ssec.life/i/image/YkBr</a> <a href=\"\nhttp://ssec.life/i/image/YsEC\" rel=\"nofollow\" target=\"_NEW\">\nhttp://ssec.life/i/image/YsEC</a> <a href=\"\nhttp://ssec.life/i/image/YGny\" rel=\"nofollow\" target=\"_NEW\">\nhttp://ssec.life/i/image/YGny</a> <a href=\"\nhttp://ssec.life/i/image/Ynex\" rel=\"nofollow\" target=\"_NEW\">\nhttp://ssec.life/i/image/Ynex</a>","last_updated":"2017-10-30T12:07:20.113Z","parsed":{"xt":"urn:btih:4d4c3257c8a0edb0e37ea3096eb50d251d45b828","dn":"Zeher 2005 Hindi 720p WEB-DL x264 AAC { TaRa }","tr":["udp://exodus.desync.com:6969","udp://open.demonii.com:1337","udp://tracker.coppersurfer.tk:6969","udp://tracker.leechers-paradise.org:6969","udp://zer0day.ch:1337"],"infoHash":"4d4c3257c8a0edb0e37ea3096eb50d251d45b828","infoHashBuffer":{"type":"Buffer","data":[77,76,50,87,200,160,237,176,227,126,163,9,110,181,13,37,29,69,184,40]},"name":"Zeher 2005 Hindi 720p WEB-DL x264 AAC { TaRa }","announce":["udp://exodus.desync.com:6969","udp://open.demonii.com:1337","udp://tracker.coppersurfer.tk:6969","udp://tracker.leechers-paradise.org:6969","udp://zer0day.ch:1337"],"urlList":[]}}